<?xml version="1.0" encoding="UTF-8" standalone="no"?>
<svg
   viewBox="0 0 897.15997 898.72998"
   version="1.1"
   id="svg91"
   sodipodi:docname="replit.svg"
   inkscape:version="1.1.2 (0a00cf5339, 2022-02-04, custom)"
   width="897.15997"
   height="898.72998"
   xmlns:inkscape="http://www.inkscape.org/namespaces/inkscape"
   xmlns:sodipodi="http://sodipodi.sourceforge.net/DTD/sodipodi-0.dtd"
   xmlns="http://www.w3.org/2000/svg"
   xmlns:svg="http://www.w3.org/2000/svg"
   xmlns:rdf="http://www.w3.org/1999/02/22-rdf-syntax-ns#"
   xmlns:cc="http://creativecommons.org/ns#"
   xmlns:dc="http://purl.org/dc/elements/1.1/">
  <sodipodi:namedview
     id="namedview93"
     pagecolor="#ffffff"
     bordercolor="#666666"
     borderopacity="1.0"
     inkscape:pageshadow="2"
     inkscape:pageopacity="0.0"
     inkscape:pagecheckerboard="0"
     showgrid="false"
     units="mm"
     inkscape:snap-others="true"
     inkscape:zoom="1.6911765"
     inkscape:cx="448.50435"
     inkscape:cy="451.46087"
     inkscape:window-width="3840"
     inkscape:window-height="2160"
     inkscape:window-x="0"
     inkscape:window-y="0"
     inkscape:window-maximized="1"
     inkscape:current-layer="svg91"
     fit-margin-top="0"
     fit-margin-left="0"
     fit-margin-right="0"
     fit-margin-bottom="0" />
  <defs
     id="defs74">
    <style
       id="style72">.cls-1{isolation:isolate;}.cls-2{fill:#56676e;}.cls-3{fill:#4e4f50;}</style>
  </defs>
  <title
     id="title76">replit logo</title>
  <g
     id="Exponent"
     class="cls-1"
     style="fill:#4d4d4d"
     clip-path="none"
     transform="translate(-129.42,-126.62)">
    <path
       class="cls-2"
       d="m 1024.5,534.05 c 1.23,13.58 2.08,27.28 2.08,41.19 v 0 c 0,-13.91 -0.85,-27.6 -2.08,-41.19 z"
       id="path78"
       style="fill:#4d4d4d" />
    <path
       class="cls-2"
       d="m 359,531.68 c 0,0 -124.75,459.64 375.26,463.64 156.88,-58.4 272.48,-201.58 290,-374.2 1.21,-11.94 1.57,-24.12 1.84,-36.32 0.05,-3.21 0.48,-6.33 0.48,-9.56 0,-13.9 -0.85,-27.61 -2.08,-41.19 C 892.4,1054.08 308,850.39 359,531.68 Z"
       id="path80"
       style="fill:#4d4d4d" />
    <path
       class="cls-2"
       d="m 617.54,361.07 c 0,0 -465.54,-130.01 -458.38,377.61 a 449.86,449.86 0 0 0 108.49,162.17 c 2,1.89 4.07,3.68 6.09,5.54 a 450.17,450.17 0 0 0 42.54,34.67 c 2.31,1.65 4.48,3.47 6.8,5.08 a 446.74,446.74 0 0 0 49.11,29.16 c 4.93,2.54 10,4.86 15,7.23 a 443.91,443.91 0 0 0 44.85,18.2 c 3.75,1.28 7.33,2.88 11.13,4.07 A 444.68,444.68 0 0 0 499,1018 c 5.71,1 11.48,1.84 17.26,2.64 a 450,450 0 0 0 59.11,4.59 c 0.76,0 1.49,0.12 2.25,0.12 14.92,0 29.65,-0.8 44.18,-2.23 C 99.46,898.55 298,314.47 617.54,361.07 Z"
       id="path82"
       style="fill:#4d4d4d" />
    <path
       class="cls-2"
       d="m 799,601.8 c 0,0 110.14,-464.34 -385.64,-443.6 -166.25,65.67 -283.94,227.43 -283.94,417 a 451.1,451.1 0 0 0 4.61,61 C 238.37,110.86 832.8,281 799,601.8 Z"
       id="path84"
       style="fill:#4d4d4d" />
    <path
       class="cls-2"
       d="m 560.95,801.62 c 0,0 466.35,60.88 437.16,-382.51 C 934.64,248.44 770.76,126.62 578,126.62 a 450.24,450.24 0 0 0 -81.35,7.73 c 519.64,63.79 384.58,671.81 64.3,667.27 z"
       id="path86"
       style="fill:#4d4d4d" />
    <path
       class="cls-3"
       d="M 707.46,575.25 A 125.65,125.65 0 1 1 581.85,449.6 125.64,125.64 0 0 1 707.46,575.25 Z"
       id="path88"
       style="fill:#4d4d4d" />
  </g>
  <metadata
     id="metadata177">
    <rdf:RDF>
      <cc:Work
         rdf:about="">
        <dc:title>replit logo</dc:title>
      </cc:Work>
    </rdf:RDF>
  </metadata>
  <path
     style="fill:#000000;stroke-width:0.591304"
     d="m 440.30174,573.38578 c -22.7326,-2.14119 -45.69357,-11.27337 -64.40375,-25.61507 -6.20218,-4.75408 -16.56356,-14.90759 -21.42932,-20.99941 -13.7113,-17.16621 -22.92316,-38.64062 -26.25291,-61.2 -1.16105,-7.86618 -1.31404,-23.76066 -0.30451,-31.63478 4.78379,-37.31256 24.93844,-69.75982 55.91649,-90.02076 19.66045,-12.85876 40.52582,-19.5141 63.86583,-20.37102 29.46682,-1.08186 56.53551,7.44918 80.33476,25.31853 26.34189,19.77845 43.96579,49.97828 48.5371,83.17184 1.16785,8.4801 1.18654,24.05111 0.0393,32.76678 -5.31132,40.35148 -29.95319,75.69061 -66.08068,94.76691 -21.29612,11.24494 -45.97524,16.10081 -70.22233,13.81698 z"
     id="path277" />
</svg>
