<svg xmlns="http://www.w3.org/2000/svg" viewBox="0 0 955.19 1117.95" style="fill:currentColor"><defs><style>.cls-1{opacity:0.5;}</style></defs><title>TikTokB2</title><g id="Layer_2" data-name="Layer 2"><g id="Layer_2-2" data-name="Layer 2"><path class="cls-1" d="M754.49,211c-59.16-49.53-81.74-119.44-90.36-165h36.69S701.43,135.18,754.49,211Z"/><path class="cls-1" d="M422.82,441.12V643.19A149.43,149.43,0,0,0,245,859.9,149.43,149.43,0,0,1,380.82,597.19v-160A321.18,321.18,0,0,1,422.82,441.12Z"/><path class="cls-1" d="M955.19,315V498s-125.37,8.77-254.37-90.11V777.48c0,188-147.48,340.47-329.41,340.47-105.46,0-199.33-51.22-259.62-130.9,58,52.83,134.2,84.9,217.62,84.9,181.93,0,329.41-152.43,329.41-340.47V361.89C787.82,460.77,913.19,452,913.19,452V310A341.12,341.12,0,0,0,955.19,315Z"/><path d="M913.19,269V452s-125.37,8.77-254.37-90.11V731.48c0,188-147.48,340.47-329.41,340.47-83.42,0-159.59-32.07-217.62-84.9C68.06,929.27,42,856.52,42,777.48,42,589.44,189.48,437,371.41,437c3.15,0,6.28.06,9.41.15v160A149.42,149.42,0,0,0,245,859.9a149.4,149.4,0,0,0,278.32-75.5V46H664.13c8.62,45.54,31.2,115.45,90.36,165C791.36,241.85,842.43,264.8,913.19,269Z"/><path class="cls-1" d="M380.82,395.12v42c-3.13-.09-6.26-.15-9.41-.15C189.48,437,42,589.44,42,777.48c0,79,26.06,151.79,69.79,209.57C43.25,924.66,0,833.3,0,731.48,0,543.44,147.48,391,329.41,391A321.7,321.7,0,0,1,380.82,395.12Z"/><path class="cls-1" d="M664.13,46H523.31V784.4A149.4,149.4,0,0,1,245,859.9,149.4,149.4,0,0,0,481.31,738.4V0H658.82S659,18.59,664.13,46Z"/></g></g></svg>
